<svg xmlns="http://www.w3.org/2000/svg" viewBox="0 0 1200 360" role="img" aria-labelledby="title desc">
  <title id="title">heyItsRocky — Cybersecurity, IoT and AI</title>
  <desc id="desc">A clean light terminal-inspired GitHub profile header.</desc>
  <defs>
    <linearGradient id="accent" x1="0" y1="0" x2="1" y2="0"><stop stop-color="#0891b2"/><stop offset=".5" stop-color="#6d28d9"/><stop offset="1" stop-color="#059669"/></linearGradient>
    <pattern id="grid" width="32" height="32" patternUnits="userSpaceOnUse"><path d="M32 0H0V32" fill="none" stroke="#475569" stroke-opacity=".08"/></pattern>
  </defs>
  <rect width="1200" height="360" rx="24" fill="#f8fafc"/>
  <rect x="1" y="1" width="1198" height="358" rx="23" fill="url(#grid)" stroke="#cbd5e1"/>
  <rect x="58" y="48" width="1084" height="264" rx="18" fill="#ffffff" fill-opacity=".9" stroke="#e2e8f0"/>
  <circle cx="86" cy="75" r="6" fill="#ef4444"/><circle cx="108" cy="75" r="6" fill="#eab308"/><circle cx="130" cy="75" r="6" fill="#22c55e"/>
  <text x="160" y="81" fill="#64748b" font-family="monospace" font-size="13">~/heyItsRocky — bash</text>
  <text x="92" y="139" fill="#0891b2" font-family="monospace" font-size="22">$ whoami</text>
  <text x="92" y="184" fill="#0f172a" font-family="monospace" font-size="42" font-weight="700">heyItsRocky</text>
  <text x="94" y="218" fill="#475569" font-family="monospace" font-size="16">Rakshith S.  ·  CSE / IoT / Cybersecurity</text>
  <rect x="94" y="246" width="610" height="2" fill="url(#accent)"/>
  <text x="94" y="278" fill="#047857" font-family="monospace" font-size="15">[+] building systems where software meets hardware_</text>
  <g transform="translate(865 118)" fill="none" stroke="url(#accent)" stroke-width="2">
    <rect x="0" y="0" width="150" height="112" rx="12"/><path d="M75 0v-28M75 112v28M0 56h-28M150 56h28"/>
    <circle cx="75" cy="56" r="30"/><path d="M60 56h30M75 41v30"/>
    <circle cx="20" cy="20" r="5" fill="#0891b2"/><circle cx="130" cy="92" r="5" fill="#059669"/>
  </g>
  <text x="865" y="262" fill="#64748b" font-family="monospace" font-size="12">AI · IoT · LINUX · SECURITY</text>
</svg>
